# xmcd
#
# Track frame offsets: 
#        150
#        17590
#        34655
#        48590
#        67607
#        93350
#        113770
#        130252
#        153407
#        169002
#
# Disc length: 2397 seconds
#
# Revision: 5
# Processed by: cddbd v1.5.2PL0 Copyright (c) Steve Scherf et al.
# Submitted via: ExactAudioCopy v0.99pb4
#
DISCID=72095b0a
DTITLE=The Rolling Stones - Made In The Shade
DYEAR=1975
DGENRE=Rock
TTITLE0=Brown Sugar
TTITLE1=Tumbling Dice
TTITLE2=Happy
TTITLE3=Dance Little Sister
TTITLE4=Wild Horses
TTITLE5=Angie
TTITLE6=Bitch
TTITLE7=It's Only Rock 'n' Roll
TTITLE8=Doo Doo Doo Doo Doo (Heartbreaker)
TTITLE9=Rip This Joint
EXTD=YEAR: 1975
EXTT0=
EXTT1=
EXTT2=
EXTT3=
EXTT4=
EXTT5=
EXTT6=
EXTT7=
EXTT8=
EXTT9=
PLAYORDER=
